<svg width="700" height="693" viewBox="0 0 700 693" fill="none" xmlns="http://www.w3.org/2000/svg">
<g clip-path="url(#clip0)">
<path d="M26.6442 390.222C26.917 390.222 27.1389 390 27.1389 389.727V380.935L37.8842 367.499V318.092L27.1389 297.144V284.917C27.1389 274.768 29.8387 264.803 34.9838 256.04L79.3531 180.418C89.6008 162.962 108.329 152.233 128.585 152.233H379.436C388.694 152.233 397.656 155.583 404.638 161.661L560.418 297.186V487.215H12.3115C5.51122 487.215 1.68196e-05 481.702 1.68196e-05 474.904V416.866C1.68196e-05 402.15 11.9284 390.222 26.6442 390.222V390.222Z" fill="#F79595"/>
<path d="M560.418 297.186H636.139C658.913 297.186 678.891 309.126 690.196 327.076L683.909 333.374L687.584 362.776L700 369.825V474.974C700 481.731 694.53 487.215 687.759 487.215H560.418L480.435 457.96V348.446L560.418 297.186Z" fill="#F79595"/>
<path d="M560.418 382.89V487.215L490.277 461.56C494.45 422.824 523.111 391.333 560.418 382.89V382.89Z" fill="#F47C7C"/>
<path d="M580.439 380.643C581.088 380.643 581.735 380.65 582.38 380.664C592.116 380.873 598.499 370.694 594.324 361.895C584.079 340.304 562.082 325.368 536.6 325.368H516.445L560.418 297.186H636.139C658.917 297.186 678.897 309.122 690.202 327.07L683.909 333.374L687.584 362.776L700 369.825V474.974C700 481.731 694.53 487.215 687.759 487.215H600.461V457.96H490.751C497.24 414.274 534.976 380.643 580.439 380.643V380.643Z" fill="#EE6161"/>
<path d="M536.6 325.368H418.266C398.542 325.368 379.682 317.28 366.087 302.991L230.185 160.16C225.92 156.448 220.914 153.77 215.558 152.233H379.436C388.694 152.233 397.656 155.583 404.638 161.661L560.418 297.186V329.979C553.056 327.015 545.023 325.368 536.6 325.368V325.368Z" fill="#F47C7C"/>
<path d="M314.36 481.943C315.895 481.943 317.455 481.608 318.932 480.9C324.212 478.371 326.443 472.04 323.914 466.76L311.181 440.173L291.297 395.819C291.07 395.314 290.956 394.779 290.956 394.225V248.374C290.956 242.52 286.209 237.773 280.355 237.773C274.5 237.773 269.754 242.52 269.754 248.374V394.225C269.754 397.788 270.493 401.243 271.95 404.494L291.89 448.969C291.927 449.049 291.964 449.13 292.003 449.211L304.794 475.92C306.613 479.722 310.407 481.943 314.36 481.943V481.943Z" fill="#F47C7C"/>
<path d="M1.92038e-05 444.627V474.904C1.92038e-05 481.702 5.51264 487.215 12.3115 487.215H560.418H687.759C694.53 487.215 700 481.731 700 474.974V444.627H1.92038e-05Z" fill="#EE6161"/>
<path d="M580.439 444.627H700V474.974C700 481.731 694.53 487.215 687.759 487.215H580.439V444.627Z" fill="#E94444"/>
<path d="M493.761 444.627H545.322V487.215H491.162C490.247 482.056 489.743 476.757 489.743 471.339C489.741 462.045 491.152 453.075 493.761 444.627V444.627Z" fill="#E94444"/>
<path d="M115.923 380.643C165.933 380.643 206.62 421.33 206.62 471.34C206.62 476.758 206.116 482.057 205.201 487.216H26.6442C25.7297 482.057 25.225 476.758 25.225 471.34C25.225 421.33 65.9108 380.643 115.923 380.643V380.643Z" fill="#F47C7C"/>
<path d="M206.619 471.339C206.619 476.757 206.114 482.056 205.2 487.215H26.6442C25.7296 482.056 25.225 476.757 25.225 471.339C25.225 462.045 26.6357 453.075 29.245 444.627H202.6C205.208 453.075 206.619 462.045 206.619 471.339V471.339Z" fill="#E94444"/>
<path d="M301.567 194.638H375.266C376.99 194.638 378.658 195.26 379.959 196.391L491.351 293.303C492.878 294.632 491.939 297.144 489.914 297.144H301.567L277.662 287.001V218.154L301.567 194.638Z" fill="#D5EAFF"/>
<path d="M281.641 214.239L301.567 194.638H375.266C376.991 194.638 378.658 195.26 379.959 196.391L491.351 293.303C492.878 294.632 491.939 297.144 489.914 297.144H360.523L281.641 214.239Z" fill="#B8DDFF"/>
<path d="M128.5 194.638H128.585H259.148L272.983 212.472V287.002L259.148 297.145H132.316C126.408 297.145 121.63 292.368 121.63 286.459V201.537C121.63 197.733 124.698 194.638 128.5 194.638Z" fill="#D5EAFF"/>
<path d="M301.567 194.638H259.148V297.144H301.567V194.638Z" fill="#F47C7C"/>
<path d="M301.567 194.638V235.181L262.99 194.638H301.567Z" fill="#EE6161"/>
<path d="M645.454 333.329C641.581 337.202 639.192 342.545 639.192 348.453C639.192 360.256 648.761 369.825 660.578 369.825H700V361.061C700 348.566 696.41 336.905 690.205 327.067H660.578C654.67 327.067 649.327 329.456 645.454 333.329V333.329Z" fill="#FEDF30"/>
<path d="M318.295 345.54H338.668C344.523 345.54 349.269 340.794 349.269 334.939C349.269 329.084 344.523 324.338 338.668 324.338H318.295C312.441 324.338 307.694 329.084 307.694 334.939C307.694 340.794 312.441 345.54 318.295 345.54Z" fill="#F47C7C"/>
<path d="M34.6898 322.08H61.9969L70.6601 339.039V369.302C70.6601 375.719 65.4443 380.935 59.013 380.935H27.139V339.039L34.6898 322.08Z" fill="#E94444"/>
<path d="M27.139 297.144V339.039H70.6601V308.791C70.6601 302.359 65.4443 297.144 59.013 297.144H27.139Z" fill="#FDB441"/>
</g>
<defs>
<clipPath id="clip0">
<rect width="700" height="700" transform="matrix(-1 0 0 1 700 -7)" fill="white"/>
</clipPath>
</defs>
</svg>
