<svg width="463" height="463" viewBox="0 0 463 463" fill="none" xmlns="http://www.w3.org/2000/svg">
<g clip-path="url(#clip0)">
<path d="M375.16 200.014C369.319 200.014 363.49 200.595 357.766 201.753C353.449 180.21 339.494 161.833 319.9 151.886C300.31 141.939 277.239 141.521 257.298 150.751C239.253 101.044 184.328 75.379 134.621 93.4246C84.9134 111.47 59.2487 166.399 77.2943 216.102C33.7517 217.478 -0.643357 253.519 0.00781335 297.077C0.662883 340.639 36.1263 375.627 79.6924 375.697H375.16C423.67 375.697 463.002 336.37 463.002 287.855C463.002 239.341 423.67 200.014 375.16 200.014V200.014Z" fill="#F1F1F1"/>
</g>
<defs>
<clipPath id="clip0">
<rect width="463" height="463" fill="white"/>
</clipPath>
</defs>
</svg>
