<svg width="92" height="92" viewBox="0 0 92 92" fill="none" xmlns="http://www.w3.org/2000/svg">
<path d="M45.6616 91.3232C20.4434 91.3232 -1.52588e-05 70.8798 -1.52588e-05 45.6616C-1.52588e-05 20.4434 20.4434 0 45.6616 0C70.8798 0 91.3232 20.4434 91.3232 45.6616C91.3232 70.8798 70.8798 91.3232 45.6616 91.3232Z" fill="#736572"/>
<path d="M45.6616 42.3605C45.6616 26.6633 37.7308 12.8179 25.6677 4.59969C31.7044 1.65525 38.4928 0.00106812 45.6616 0.00106812C70.8796 0.00106812 91.3232 20.4447 91.3232 45.6626C91.3232 70.8806 70.8796 91.3243 45.6616 91.3243C36.1408 91.3243 27.2929 88.4057 19.9763 83.4204C35.1761 76.0066 45.6616 60.4097 45.6616 42.3605V42.3605Z" fill="#615260"/>
<path d="M45.6457 60.2914C53.7212 60.2914 60.2914 53.7223 60.2914 45.6457C60.2914 37.5692 53.7222 31 45.6457 31C37.5692 31 31 37.5702 31 45.6457C31 53.7212 37.5702 60.2914 45.6457 60.2914Z" fill="#F9F7F8"/>
<path d="M42.1712 59.8876C44.4147 54.4949 45.6616 48.5647 45.6616 42.3605C45.6616 38.47 45.1808 34.6933 44.2638 31.0872C44.7269 31.0428 45.187 31.0169 45.6616 31.0169C53.7371 31.0169 60.3073 37.5871 60.3073 45.6626C60.3073 53.7381 53.7381 60.3083 45.6616 60.3083C44.4592 60.3073 43.2888 60.1615 42.1712 59.8876V59.8876Z" fill="#D7D0D6"/>
</svg>
